<svg viewBox="0 0 1409.58 288.35" xmlns="http://www.w3.org/2000/svg" xmlns:xlink="http://www.w3.org/1999/xlink" id="Layer_2" overflow="hidden"><defs></defs><g id="Layer_1-2"><g><path d="M457.03 44.9 404.17 197.24 402.75 201.34 401.34 197.23 349.02 44.9 318.92 44.9 384.99 232.9 420.52 232.9 486.32 44.9 457.03 44.9Z" stroke-width="0" fill="#FFFFFF"/><g><path d="M572.28 102.25C562.27 96.93 550.52 94.24 537.37 94.24 524.22 94.24 512.78 97.16 502.78 102.91 492.8 108.65 484.92 116.9 479.35 127.42 473.76 137.98 470.93 150.45 470.93 164.51 470.93 178.57 473.85 190.72 479.61 201.17 485.35 211.6 493.6 219.8 504.12 225.55 514.67 231.31 527.23 234.24 541.47 234.24 557.78 234.24 571.55 229.76 582.41 220.93 592.77 212.51 599.4 201.74 602.13 188.91L575.62 188.91C573.41 196.39 569.18 202.32 563.06 206.55 556.65 210.98 548.65 213.23 539.29 213.23 527.46 213.23 517.83 209.5 510.66 202.13 503.59 194.88 499.53 184.83 498.59 172.27L498.59 172.21C498.59 172.21 498.59 172.15 498.59 172.15L498.59 168.9 604.3 168.9C604.72 165.7 604.93 162.49 604.93 159.33 604.75 146.22 601.75 134.63 596 124.89 590.25 115.17 582.28 107.56 572.3 102.26ZM576.14 150.89 499.37 150.89 499.56 149.22C500.69 139.04 504.96 130.76 512.24 124.62 519.49 118.5 528.23 115.39 538.19 115.39 548.88 115.39 557.89 118.4 564.96 124.34 572.05 130.3 576.32 138.66 577.63 149.19L577.84 150.88 576.14 150.88Z" stroke-width="0" fill="#FFFFFF"/><path d="M606.18 159.16C606.18 159.16 606.18 159.11 606.18 159.09 606.18 159.11 606.18 159.14 606.18 159.16L606.18 159.16Z" stroke-width="0" fill="#FFFFFF"/></g><path d="M663.73 101.3C657.62 104.89 652.58 109.92 648.74 116.24L646.61 119.75 645.98 115.69 642.91 95.91 619.58 95.91 619.58 232.91 645.58 232.91 645.58 164.38C645.58 151.95 648.44 141.53 654.08 133.41 659.84 125.12 669.2 120.91 681.92 120.91L693.59 120.91 693.59 95.91 688.56 95.91C678.18 95.91 669.83 97.73 663.74 101.31Z" stroke-width="0" fill="#FFFFFF"/><path d="M813.05 170.04C808.32 164.52 801.91 160.43 793.99 157.88 785.89 155.27 775.76 153.31 763.86 152.05 754.88 150.95 748.29 149.98 744.25 149.15 740.01 148.28 736.43 146.71 733.61 144.47 730.6 142.09 729.07 138.51 729.07 133.84 729.07 127.64 731.98 122.69 737.73 119.13 743.25 115.71 750.52 113.97 759.36 113.97 768.2 113.97 775.72 116.14 781.63 120.43 787.23 124.5 790.59 129.7 791.65 135.91L817.52 135.91C816.3 122.95 810.52 112.71 800.31 105.45 789.55 97.81 775.32 93.94 757.99 93.94 747.46 93.94 737.93 95.74 729.65 99.3 721.44 102.84 714.91 107.88 710.26 114.3 705.63 120.68 703.28 128.09 703.28 136.31 703.28 145.03 705.6 152.03 710.16 157.11 714.79 162.27 721.03 166.09 728.68 168.47 736.52 170.9 746.62 172.87 758.71 174.31 767.66 175.41 774.4 176.48 778.75 177.49 783.28 178.55 786.97 180.38 789.71 182.92 792.58 185.59 794.03 189.55 794.03 194.71 794.03 200.91 790.97 205.91 784.94 209.57 779.16 213.08 771.56 214.86 762.36 214.86 752.03 214.86 743.47 212.41 736.93 207.57 730.69 202.96 727.08 197.02 726.18 189.9L700.58 189.9C701.3 203.61 707.11 214.55 717.87 222.42 729.16 230.69 744.22 234.88 762.64 234.88 773.55 234.88 783.51 233.12 792.25 229.64 800.91 226.19 807.8 221.19 812.73 214.77 817.62 208.39 820.1 200.91 820.1 192.51 820.1 183.05 817.73 175.49 813.06 170.04Z" stroke-width="0" fill="#FFFFFF"/><rect x="837.58" y="95.9" width="26" height="137" stroke-width="0" fill="#FFFFFF"/><path d="M867.08 55.75C867.08 51.04 865.53 47.24 862.35 44.14 859.15 41.03 855.3 39.52 850.57 39.52 845.84 39.52 841.99 41.03 838.79 44.14 835.61 47.24 834.06 51.04 834.06 55.75 834.06 60.46 835.61 64.27 838.79 67.36 841.98 70.47 845.83 71.98 850.57 71.98 855.31 71.98 859.15 70.47 862.35 67.36 865.53 64.26 867.08 60.46 867.08 55.75Z" stroke-width="0" fill="#FFFFFF"/><path d="M905.14 275.98C916.57 284.19 931.68 288.36 950.07 288.36 973.77 288.36 991.48 283.05 1002.71 272.57 1013.9 262.11 1019.58 247.14 1019.58 228.07L1019.58 95.9 996.9 95.9 993.84 116.4 993.25 120.32 991.09 116.99C986.55 109.98 980.53 104.37 973.2 100.34 965.87 96.31 956.99 94.26 946.82 94.26 934.69 94.26 923.64 97.17 913.98 102.9 904.33 108.63 896.63 116.81 891.09 127.22 885.54 137.66 882.73 149.88 882.73 163.54 882.73 177.2 885.5 190.2 890.96 200.54 896.4 210.85 904.04 218.89 913.69 224.44 923.35 230 934.5 232.82 946.82 232.82 966.25 232.82 981.05 225.35 990.83 210.62L993.58 206.48 993.58 226.97C993.58 253.8 979.67 267.4 952.24 267.4 941.7 267.4 932.94 265.17 926.21 260.76 919.73 256.51 915.42 250.5 913.39 242.9L886.4 242.9C887.94 257.02 894.24 268.15 905.14 275.98ZM982.26 197.71C974.53 206.47 964.23 210.92 951.64 210.92 939.05 210.92 928.74 206.43 921.02 197.57 913.35 188.78 909.46 177.24 909.46 163.27 909.46 149.3 913.35 137.77 921.03 128.97 928.76 120.11 939.06 115.62 951.65 115.62 964.24 115.62 974.54 120.16 982.28 129.11 989.95 138 993.84 149.68 993.84 163.81 993.84 177.94 989.95 189 982.27 197.71Z" stroke-width="0" fill="#FFFFFF"/><path d="M1136.63 102.25C1126.62 96.93 1114.87 94.24 1101.72 94.24 1088.57 94.24 1077.13 97.16 1067.13 102.91 1057.15 108.65 1049.27 116.9 1043.7 127.42 1038.11 137.98 1035.28 150.45 1035.28 164.51 1035.28 178.57 1038.2 190.72 1043.96 201.17 1049.7 211.6 1057.95 219.8 1068.47 225.55 1079.02 231.31 1091.58 234.24 1105.82 234.24 1122.13 234.24 1135.9 229.76 1146.76 220.93 1157.12 212.51 1163.75 201.74 1166.48 188.91L1139.97 188.91C1137.76 196.39 1133.53 202.32 1127.41 206.55 1121 210.98 1113 213.23 1103.64 213.23 1091.81 213.23 1082.18 209.5 1075.01 202.13 1067.7 194.63 1063.85 184.55 1063.59 172.19L1063.59 170.41C1063.59 170.41 1063.59 168.91 1063.59 168.91L1168.65 168.91C1169.07 165.71 1169.28 162.5 1169.28 159.34 1169.1 146.23 1166.1 134.64 1160.35 124.9 1154.6 115.18 1146.63 107.57 1136.65 102.27ZM1140.86 150.89 1064.09 150.89 1064.28 149.22C1065.41 139.04 1069.68 130.76 1076.96 124.62 1084.21 118.5 1092.95 115.39 1102.91 115.39 1113.6 115.39 1122.61 118.4 1129.68 124.34 1136.77 130.3 1141.04 138.66 1142.35 149.19L1142.56 150.88 1140.86 150.88Z" stroke-width="0" fill="#FFFFFF"/><path d="M1255.81 94.26C1237.08 94.26 1222.41 100.78 1212.19 113.65L1210.12 116.25 1209.53 112.98 1206.47 95.9 1183.55 95.9 1183.55 232.9 1210.55 232.9 1210.55 163.95C1210.55 149.46 1214.03 137.88 1220.9 129.55 1227.84 121.12 1237.5 116.85 1249.61 116.85 1260.99 116.85 1269.78 120.53 1275.72 127.78 1281.58 134.95 1284.56 145.47 1284.56 159.04L1284.56 232.9 1310.56 232.9 1310.56 157.29C1310.56 135.22 1305.43 119.02 1295.31 109.15 1285.18 99.27 1271.88 94.26 1255.8 94.26Z" stroke-width="0" fill="#FFFFFF"/><path d="M1376.28 206.02C1373.79 203.43 1372.57 199.29 1372.57 193.37L1372.57 118.9 1405.57 118.9 1405.57 95.9 1371.57 95.9 1371.57 56.9 1345.57 56.9 1345.57 95.9 1321.57 95.9 1321.57 118.9 1345.57 118.9 1345.57 196.4C1345.57 208.87 1348.52 218.18 1354.33 224.05 1360.14 229.92 1369.62 232.9 1382.51 232.9L1409.57 232.9 1409.57 209.9 1388.6 209.9C1382.82 209.9 1378.79 208.63 1376.28 206.02Z" stroke-width="0" fill="#FFFFFF"/><g><path d="M84.44 100.41C102.07 118.45 115.81 140.02 129.1 160.88 139.55 177.28 149.5 192.9 160.8 206.03 159.51 200.84 158.51 195.44 157.78 189.7 154.97 167.66 156.73 144.49 158.43 122.08 160.12 99.78 162.04 74.5 157.89 51.37 155.72 39.3 152.13 28.72 146.9 19.04 143.2 12.18 138.74 5.88 133.42-7.10543e-15 86.5 1.04 45.42 25.75 21.65 62.68 45.25 68.99 65.83 81.36 84.44 100.42Z" stroke-width="0" fill="#CD7925"/><path d="M179.59 6.91C186.6 20.34 191.33 35.18 193.9 51.73 197.76 76.66 196.42 102.2 195.11 126.9 193.83 151.21 192.61 174.17 196.4 194.95 199.81 213.68 207.02 228.54 218.45 240.34L220.13 242.02C220.54 242.42 221.01 242.87 221.48 243.31 252.88 218.3 273.01 179.74 273.01 136.47 273.01 76.13 233.87 24.94 179.6 6.9Z" stroke-width="0" fill="#CD7925"/><path d="M135.22 233.69C120.13 217.39 108.1 197.51 96.46 178.28 84.88 159.15 71.76 137.46 54.94 121.05 46.16 112.49 37.09 105.97 27.21 101.12 20.7 97.93 13.94 95.52 6.8 93.83 2.39 107.25 4.44089e-15 121.58 4.44089e-15 136.47 4.44089e-15 211.87 61.11 272.99 136.5 272.99 152.22 272.99 167.31 270.33 181.36 265.44 164.11 259.1 149.24 248.83 135.22 233.68Z" stroke-width="0" fill="#CD7925"/></g></g></g></svg>