<svg viewBox="0 0 1408.58 287.36" xmlns="http://www.w3.org/2000/svg" xmlns:xlink="http://www.w3.org/1999/xlink" id="Layer_2" overflow="hidden"><defs/><g id="Layer_1-2"><g><g><path d="M314.68 40.91 347.97 40.91 400.63 194.26 453.84 40.91 486.31 40.91 419.46 231.91 381.81 231.91 314.69 40.91Z" fill="#030303"/><path d="M475.53 124.23C481.26 113.41 489.26 105.04 499.54 99.13 509.82 93.22 521.6 90.26 534.88 90.26 548.16 90.26 560.21 92.99 570.49 98.45 580.76 103.91 588.86 111.64 594.78 121.64 600.69 131.65 603.74 143.38 603.92 156.84 603.92 160.48 603.65 164.21 603.1 167.91L497.58 167.91 497.58 169.66C498.5 181.85 502.32 191.49 509.23 198.58 516.14 205.67 525.33 209.22 536.79 209.22 545.88 209.22 553.53 207.08 559.71 202.81 565.89 198.54 569.98 192.49 571.99 184.9L601.46 184.9C598.91 198.85 592.05 210.49 580.86 219.59 569.67 228.69 555.71 233.23 538.97 233.23 524.41 233.23 511.73 230.28 500.9 224.36 490.07 218.45 481.71 210.13 475.8 199.39 469.89 188.66 466.93 176.2 466.93 162.01 466.93 147.82 469.79 135.04 475.53 124.22ZM573.9 146.91C572.62 136.72 568.58 128.76 561.76 123.03 554.94 117.3 546.34 114.43 535.97 114.43 526.33 114.43 518 117.39 511 123.3 503.99 129.21 499.95 137.08 498.86 146.9L573.9 146.9Z" fill="#030303"/><path d="M692.58 91.91 692.58 119.91 679.41 119.91C667.16 119.91 658.29 123.86 652.8 131.76 647.31 139.66 644.57 149.7 644.57 161.87L644.57 231.9 615.57 231.9 615.57 91.91 641.69 91.91 644.95 112.96C648.94 106.4 654.11 101.25 660.46 97.51 666.81 93.78 675.33 91.9 686.04 91.9L692.57 91.9Z" fill="#030303"/><path d="M725.18 185.91C725.73 193.22 729.16 199.21 735.46 203.87 741.77 208.53 749.95 210.86 760 210.86 768.95 210.86 776.22 209.17 781.8 205.79 787.37 202.41 790.16 197.89 790.16 192.22 790.16 187.47 788.88 183.9 786.32 181.53 783.76 179.16 780.33 177.46 776.04 176.46 771.74 175.46 765.11 174.4 756.16 173.31 743.91 171.85 733.81 169.88 725.86 167.41 717.91 164.94 711.51 161.01 706.67 155.62 701.82 150.23 699.4 142.96 699.4 133.82 699.4 125.23 701.82 117.6 706.67 110.92 711.51 104.25 718.19 99.09 726.69 95.43 735.19 91.78 744.83 89.95 755.62 89.95 773.35 89.95 787.74 93.88 798.81 101.74 809.87 109.6 815.85 120.66 816.77 134.92L787.98 134.92C787.25 128.52 784.05 123.27 778.38 119.15 772.71 115.04 765.58 112.98 756.99 112.98 748.4 112.98 741.45 114.63 736.15 117.92 730.85 121.21 728.2 125.69 728.2 131.36 728.2 135.57 729.52 138.72 732.18 140.82 734.83 142.92 738.17 144.38 742.19 145.21 746.21 146.03 752.7 146.99 761.66 148.09 773.73 149.37 783.87 151.34 792.1 153.99 800.33 156.64 806.91 160.84 811.84 166.6 816.78 172.36 819.24 180.17 819.24 190.04 819.24 198.81 816.68 206.54 811.56 213.21 806.44 219.88 799.4 225 790.45 228.56 781.49 232.12 771.44 233.91 760.29 233.91 741.46 233.91 726.24 229.66 714.64 221.16 703.03 212.66 697.04 200.92 696.68 185.93L725.2 185.93Z" fill="#030303"/><path d="M860.96 41C864.41 44.37 866.14 48.6 866.14 53.69 866.14 58.78 864.41 63.01 860.96 66.38 857.5 69.75 853.23 71.43 848.13 71.43 843.03 71.43 838.76 69.75 835.3 66.38 831.84 63.02 830.12 58.79 830.12 53.69 830.12 48.59 831.85 44.37 835.3 41 838.75 37.64 843.03 35.95 848.13 35.95 853.23 35.95 857.5 37.63 860.96 41ZM833.58 91.91 862.58 91.91 862.58 231.91 833.58 231.91 833.58 91.91Z" fill="#030303"/><path d="M1018.58 91.91 1018.58 225.57C1018.58 245.17 1012.79 260.37 1001.23 271.17 989.67 281.97 971.78 287.37 947.57 287.37 928.78 287.37 913.51 283.15 901.77 274.71 890.02 266.27 883.52 254.34 882.26 238.91L912.07 238.91C913.87 246.71 918.03 252.75 924.54 257.01 931.05 261.27 939.45 263.41 949.75 263.41 976.31 263.41 989.59 250.43 989.59 224.48L989.59 208.96C979.47 224.2 964.38 231.83 944.33 231.83 931.68 231.83 920.39 228.97 910.45 223.25 900.51 217.53 892.74 209.37 887.14 198.75 881.54 188.13 878.74 175.57 878.74 161.05 878.74 146.53 881.59 134.74 887.28 124.03 892.97 113.32 900.78 105.02 910.72 99.12 920.65 93.22 931.86 90.27 944.33 90.27 954.81 90.27 963.84 92.36 971.43 96.53 979.02 100.71 985.16 106.42 989.86 113.68L993.11 91.9 1018.59 91.9ZM978.62 194.63C986.08 186.17 989.81 175.21 989.81 161.75 989.81 148.29 986.08 136.69 978.62 128.05 971.16 119.41 961.33 115.09 949.15 115.09 936.97 115.09 927.14 119.37 919.68 127.91 912.22 136.46 908.49 147.56 908.49 161.2 908.49 174.84 912.22 185.94 919.68 194.49 927.14 203.04 936.96 207.31 949.15 207.31 961.34 207.31 971.16 203.08 978.62 194.62Z" fill="#030303"/><path d="M1039.88 124.23C1045.61 113.41 1053.61 105.04 1063.89 99.13 1074.17 93.22 1085.95 90.26 1099.23 90.26 1112.51 90.26 1124.56 92.99 1134.84 98.45 1145.11 103.91 1153.21 111.64 1159.13 121.64 1165.04 131.65 1168.09 143.38 1168.27 156.84 1168.27 160.48 1168 164.21 1167.45 167.91L1062.58 167.91 1062.58 169.66C1062.84 181.85 1066.66 191.49 1073.58 198.58 1080.49 205.67 1089.68 209.22 1101.14 209.22 1110.23 209.22 1117.88 207.08 1124.06 202.81 1130.24 198.54 1134.33 192.49 1136.34 184.9L1165.81 184.9C1163.26 198.85 1156.4 210.49 1145.21 219.59 1134.02 228.69 1120.06 233.23 1103.32 233.23 1088.76 233.23 1076.08 230.28 1065.25 224.36 1054.42 218.45 1046.06 210.13 1040.15 199.39 1034.24 188.66 1031.28 176.2 1031.28 162.01 1031.28 147.82 1034.14 135.04 1039.88 124.22ZM1138.25 146.91C1136.97 136.72 1132.93 128.76 1126.11 123.03 1119.29 117.3 1110.69 114.43 1100.32 114.43 1090.68 114.43 1082.35 117.39 1075.35 123.3 1068.34 129.21 1064.3 137.08 1063.21 146.9L1138.25 146.9Z" fill="#030303"/><path d="M1293.87 105.58C1304.34 115.79 1309.57 132.2 1309.57 154.8L1309.57 231.91 1280.57 231.91 1280.57 156.6C1280.57 143.32 1277.73 133.23 1272.07 126.31 1266.4 119.4 1258.09 115.94 1247.12 115.94 1235.42 115.94 1226.24 119.99 1219.57 128.08 1212.9 136.18 1209.56 147.32 1209.56 161.51L1209.56 231.91 1179.56 231.91 1179.56 91.91 1205.23 91.91 1208.51 110.23C1219.07 96.93 1234 90.27 1253.3 90.27 1269.87 90.27 1283.38 95.38 1293.86 105.58Z" fill="#030303"/><path d="M1341.58 117.91 1317.58 117.91 1317.58 91.91 1341.58 91.91 1341.58 52.91 1370.58 52.91 1370.58 91.91 1404.58 91.91 1404.58 117.91 1371.58 117.91 1371.58 190.88C1371.58 196.35 1372.68 200.22 1374.87 202.49 1377.06 204.77 1380.81 205.91 1386.11 205.91L1408.58 205.91 1408.58 231.91 1380.02 231.91C1366.66 231.91 1356.91 228.81 1350.78 222.62 1344.65 216.43 1341.58 206.86 1341.58 193.91L1341.58 117.91Z" fill="#030303"/></g><g><path d="M82.69 101.48C100.11 119.3 113.74 140.7 126.93 161.4 139.12 180.53 150.68 198.66 164.53 213.03 162.08 205.49 160.31 197.45 159.21 188.76 156.44 167.01 158.18 144.04 159.87 121.8 163.15 78.61 166.01 34.83 135.58-0.01 86.97 0.15 44.37 25.8 20.44 64.27 43.85 70.41 64.24 82.59 82.69 101.47Z" fill="#CD7924"/><path d="M136.2 231.47C121.31 215.38 109.38 195.67 97.83 176.6 75.43 139.58 52.33 102.34 7.41 91.63 2.61 105.53 0 120.46 0 136 0 211.11 60.89 272 136 272 152.78 272 168.84 268.95 183.68 263.4 165.82 257.27 150.57 246.98 136.21 231.47Z" fill="#CD7924"/><path d="M176.46 6.03C183.88 19.69 188.84 34.87 191.48 51.88 195.3 76.51 193.96 101.84 192.66 126.35 191.38 150.69 190.16 173.67 193.97 194.61 197.48 213.9 205.02 229.25 216.95 241.37 217.16 241.4 217.36 241.44 217.57 241.46L217.57 241.98C218.15 242.56 218.74 243.13 219.34 243.69 251.54 218.82 272.28 179.83 272.28 136 272.28 74.87 231.95 23.17 176.45 6.03Z" fill="#CD7924"/></g></g></g></svg>